# xmcd CD database file
#
# Track frame offsets:
#	150
#	11579
#	26671
#	40624
#	60926
#	91898
#	107290
#	116059
#	129597
#	144615
#	155480
#	174509
#	199099
#	231209
#	245468
#	265085
#	275157
#	289304
#	302013
#
# Disc length: 4426 seconds
#
# Revision: 0
# Processed by: cddbd v1.4PL0 Copyright (c) Steve Scherf et al.
# Submitted via: CDex 1.50
#
DISCID=05114813
DTITLE=diverse artists - Hessen Jazz Idstein 1999
DYEAR=1999
DGENRE=Jazz
TTITLE0=Phoenix Foundation - For once in my life
TTITLE1=Brass Mission - Meine Tante aus B沈men
TTITLE2=Josho Stephan Quartett - Premiere
TTITLE3=Schwarz. Wind and Schmidkunz - Talking about J.C.
TTITLE4=Groove Garden - Without you
TTITLE5=Jazzmo Dixie Gang - Charlston
TTITLE6=Tune up - Sunny
TTITLE7=The Paradise Club - Lena
TTITLE8=IKS Big BAnd - I got rhythm
TTITLE9=Zambo압 Bluesband - I feel good
TTITLE10=Blue Note Big Band - Just friends
TTITLE11=New Orleans Syncopaters - Anytime
TTITLE12=BAchmann Group - Jutta압 Mood
TTITLE13=Pipesdelight - Ciao Bella
TTITLE14=Big Steve압 Blues Attack - Help me
TTITLE15=Sloopy-NOtes-Jazz-Band - Exactly like you
TTITLE16=Huljet - L앆haim Yiddies blues
TTITLE17=Fialke - Dem Trisker Rebn압 Khosid
TTITLE18=Aufwind - Fun taschlich
EXTD=YEAR: 1999
EXTT0=
EXTT1=
EXTT2=
EXTT3=
EXTT4=
EXTT5=
EXTT6=
EXTT7=
EXTT8=
EXTT9=
EXTT10=
EXTT11=
EXTT12=
EXTT13=
EXTT14=
EXTT15=
EXTT16=
EXTT17=
EXTT18=
PLAYORDER=
